<svg viewBox="0 0 64 64" xml:space="preserve" xmlns="http://www.w3.org/2000/svg"><g fill="#ffffff" class="fill-241f20"><path d="M62.378 13.572H49.731c.016-2.477.049-8.72-.007-9.501-.072-.979-.174-1.818-1.469-3.042S44.899.014 44.899.014s-24.697-.052-26.297 0c-1.6.053-2.596.577-3.461 1.705-.865 1.128-.813 2.413-.813 2.413v9.441H1.704c-.895 0-1.623.745-1.623 1.664v47.107c0 .921.728 1.665 1.623 1.665h60.674c.898 0 1.622-.744 1.622-1.665V15.236c0-.919-.724-1.664-1.622-1.664zM19.363 5.967c0-1.18 1.364-.918 1.364-.918h22.95c1.049 0 1.013 1.049 1.013 1.049v7.474H19.363V5.967zm41.284 52.994a1.44 1.44 0 0 1-1.446 1.433H5.093a1.442 1.442 0 0 1-1.446-1.433V18.43c0-.79.649-1.431 1.446-1.431h54.108c.8 0 1.446.641 1.446 1.431v40.531z"></path><path d="M45.61 32.202h-5.098c-1.685 0-1.825-1.393-1.832-1.763v-5.153c0-.922-.741-1.678-1.679-1.678h-9.919c-.941 0-1.678.756-1.678 1.678v5.089c-.006.395-.104 1.827-1.255 1.827h-5.678c-.921 0-1.678.754-1.678 1.679v9.936c0 .921.757 1.678 1.678 1.678h5.122c.631.04 1.811.328 1.811 1.925v5.006a1.67 1.67 0 0 0 1.678 1.678h9.919c.938 0 1.679-.754 1.679-1.678v-4.324c0-2.393 1.718-2.597 2.167-2.606h4.763c.925 0 1.679-.757 1.679-1.678v-9.936c0-.926-.754-1.68-1.679-1.68zM43.929 42.63h-3.943c-.056.01-.105.032-.161.032h-1.852c-.758.062-2.118.479-2.118 2.737v5.517h-7.62V45.4c0-2.259-1.421-2.675-2.208-2.737H24.26c-.029 0-.052-.013-.081-.017h-4.358v-7.604h6.686c1.583 0 1.718-1.546 1.726-1.932v-.55h-.003v-5.874h7.619v5.471s-.108 2.885 2.487 2.885H43.928v7.588z"></path></g></svg>